PathFileType	4	(X/Y/Z)	/Users/itak/Documents/Research/Walk-IL/dataset/trc/00394_00012.trc
DataRate	CameraRate	NumFrames	NumMarkers	Units	OrigDataRate	OrigDataStartFrame	OrigNumFrames
100.000000	100.000000	4	54	mm	100.000000	512	683
Frame#	Time	RPSI			LPSI			L3			STRN			T10			C7			CLAV			RBAK			LBAK			LSHO			LUPA			LAEL			LAOL			LWTS			LWPS			LFRA			LIFD			LHPS			RSHO			RUPA			RAEL			RAOL			RWTS			RWPS			RFRA			RIFD			RHTS			RHPS			RBHD			LFHD			RFHD			LBHD			RHIP			RASI			LASI			LKNE			LTHI			LANK			LTIP			LTOE			LMT1			LMT5			LHEE			RKNE			RTHI			RANK			RTIP			RTOE			RMT1			RMT5			RHEE			LHTS			LHIP			*53			
		X1	Y1	Z1	X2	Y2	Z2	X3	Y3	Z3	X4	Y4	Z4	X5	Y5	Z5	X6	Y6	Z6	X7	Y7	Z7	X8	Y8	Z8	X9	Y9	Z9	X10	Y10	Z10	X11	Y11	Z11	X12	Y12	Z12	X13	Y13	Z13	X14	Y14	Z14	X15	Y15	Z15	X16	Y16	Z16	X17	Y17	Z17	X18	Y18	Z18	X19	Y19	Z19	X20	Y20	Z20	X21	Y21	Z21	X22	Y22	Z22	X23	Y23	Z23	X24	Y24	Z24	X25	Y25	Z25	X26	Y26	Z26	X27	Y27	Z27	X28	Y28	Z28	X29	Y29	Z29	X30	Y30	Z30	X31	Y31	Z31	X32	Y32	Z32	X33	Y33	Z33	X34	Y34	Z34	X35	Y35	Z35	X36	Y36	Z36	X37	Y37	Z37	X38	Y38	Z38	X39	Y39	Z39	X40	Y40	Z40	X41	Y41	Z41	X42	Y42	Z42	X43	Y43	Z43	X44	Y44	Z44	X45	Y45	Z45	X46	Y46	Z46	X47	Y47	Z47	X48	Y48	Z48	X49	Y49	Z49	X50	Y50	Z50	X51	Y51	Z51	X52	Y52	Z52	X53	Y53	Z53	X54	Y54	Z54	

513	5.12	-1565.536499023438	991.171630859375	25.98433876037598	-1571.62451171875	983.2157592773438	-105.7689590454102	-1567.91650390625	1064.259399414062	-37.60792541503906	-1325.124145507812	1221.386596679688	-38.64802169799805	-1572.365966796875	1167.158569335938	-40.29379653930664	-1534.366088867188	1415.929321289062	-47.95470809936523	-1378.068481445312	1340.15234375	-40.31174468994141	-1575.984619140625	1270.874145507812	22.7619514465332	-1546.0751953125	1376.070556640625	-152.5711669921875	-1458.3115234375	1392.251220703125	-202.9011688232422	-1475.928833007812	1273.833862304688	-271.9229125976562	-1448.16015625	1078.849365234375	-296.4989929199219	-1496.399658203125	1054.470092773438	-232.0424041748047	-1347.682861328125	865.5299682617188	-267.7348327636719	-1407.158569335938	850.2400512695312	-319.2669982910156	-1429.238647460938	974.9146728515625	-306.9601745605469	-1332.07666015625	685.4833984375	-264.9677124023438	-1387.3935546875	765.572509765625	-313.2882080078125	-1478.109741210938	1397.366577148438	111.6502532958984	-1490.46142578125	1332.526977539062	171.0940399169922	-1477.837646484375	1072.708984375	216.5859375	-1503.086547851562	1059.127319335938	125.3479080200195	-1337.077514648438	866.1102905273438	189.9888763427734	-1377.085327148438	853.4389038085938	251.3939666748047	-1447.568359375	1008.931274414062	233.1358947753906	-1323.731811523438	694.9559326171875	195.1917114257812	-1306.068237304688	763.8170166015625	212.6217193603516	-1365.114013671875	763.7675170898438	252.114501953125	-1515.612915039062	1596.375366210938	38.01254653930664	-1358.869506835938	1620.606323242188	-83.27358245849609	-1383.205322265625	1617.070190429688	36.88690567016602	-1500.443115234375	1598.182495117188	-123.7623291015625	-1480.443237304688	968.6593017578125	139.3309783935547	-1349.572509765625	977.0051879882812	79.86592102050781	-1377.93310546875	970.4212646484375	-178.6068115234375	-1427.874633789062	483.75390625	-214.0685424804688	-1440.819458007812	625.7188720703125	-222.9697265625	-1507.43017578125	42.6744270324707	-185.9019165039062	-1469.801879882812	249.80126953125	-211.9907836914062	-1298.01611328125	49.12334823608398	-112.9309539794922	-1378.954833984375	45.18111419677734	-84.93414306640625	-1378.470092773438	43.16253280639648	-190.3971862792969	-1548.0234375	36.1688232421875	-129.57373046875	-1431.248168945312	479.911865234375	121.7206878662109	-1400.306396484375	742.1685791015625	139.5227355957031	-1494.887817382812	58.73239898681641	105.2158279418945	-1422.914916992188	351.8526306152344	109.894157409668	-1316.631469726562	44.47127914428711	46.62507629394531	-1387.922729492188	43.73850631713867	14.20027256011963	-1408.9326171875	54.29447174072266	111.8995666503906	-1567.63427734375	41.23443603515625	50.90830993652344	-1326.861694335938	770.358642578125	-291.6754760742188	-1488.5634765625	976.5969848632812	-225.3094635009766	nan	nan	nan	
514	5.13	-1565.7841796875	991.08544921875	25.73101806640625	-1571.911987304688	983.1402587890625	-106.0607299804688	-1568.244506835938	1064.192016601562	-37.89323425292969	-1325.485961914062	1221.44775390625	-38.97963333129883	-1572.731689453125	1167.097900390625	-40.62439346313477	-1534.81005859375	1415.882080078125	-48.30849075317383	-1378.425903320312	1340.190795898438	-40.60658264160156	-1576.403686523438	1270.823974609375	22.48687362670898	-1546.51806640625	1375.980346679688	-152.9203491210938	-1458.748168945312	1392.177368164062	-203.2776336669922	-1476.42431640625	1273.711791992188	-272.2183532714844	-1448.770629882812	1078.687866210938	-296.6292419433594	-1496.976806640625	1054.388916015625	-232.0915222167969	-1348.743041992188	865.1915893554688	-267.7494201660156	-1408.081420898438	849.9678344726562	-319.1737365722656	-1429.9580078125	974.7039794921875	-307.000244140625	-1332.832397460938	685.076904296875	-264.1144409179688	-1388.403930664062	765.265869140625	-313.0343933105469	-1478.518676757812	1397.35595703125	111.2931900024414	-1490.857177734375	1332.541381835938	170.7902069091797	-1478.0810546875	1072.726196289062	216.1982727050781	-1503.307983398438	1059.12255859375	124.9934463500977	-1338.038696289062	865.5945434570312	189.9253540039062	-1378.180541992188	853.1757202148438	251.3111267089844	-1447.927001953125	1008.925231933594	232.8735809326172	-1324.338623046875	694.5538940429688	195.3035430908203	-1308.862182617188	762.9518432617188	212.4834136962891	-1366.58544921875	763.39697265625	252.0750427246094	-1516.12890625	1596.511108398438	37.51247406005859	-1359.076171875	1620.476440429688	-83.53926849365234	-1383.609985351562	1617.0361328125	36.57542419433594	-1500.522705078125	1598.231567382812	-124.2962112426758	-1480.780151367188	968.7120971679688	139.0486602783203	-1349.80078125	977.0518188476562	79.65277862548828	-1378.248779296875	970.3834838867188	-178.8670501708984	-1427.92431640625	483.7343139648438	-214.1440887451172	-1440.92822265625	625.7258911132812	-223.0830841064453	-1507.404418945312	42.67415237426758	-185.8775329589844	-1469.811767578125	249.7794189453125	-212.0042419433594	-1298.035888671875	49.0848388671875	-112.9359283447266	-1379.021240234375	45.07959365844727	-84.87456512451172	-1378.4580078125	43.16672897338867	-190.3915252685547	-1548.01220703125	36.16807174682617	-129.5610046386719	-1431.37939453125	479.91845703125	121.6135330200195	-1400.592041015625	742.2536010742188	139.4193878173828	-1494.890991210938	58.7437858581543	105.1949691772461	-1422.991088867188	351.8563842773438	109.8456039428711	-1316.617431640625	44.40103149414062	46.62290954589844	-1387.885131835938	43.71619415283203	14.20440578460693	-1408.933471679688	54.2730827331543	111.9082717895508	-1567.645385742188	41.25389862060547	50.88724517822266	-1327.84423828125	770.005615234375	-291.4393920898438	-1488.746337890625	976.5521850585938	-225.5060729980469	nan	nan	nan	
515	5.14	-1566.015502929688	990.9901733398438	25.50032997131348	-1572.177978515625	983.052490234375	-106.3322143554688	-1568.56982421875	1064.118041992188	-38.17256927490234	-1325.825317382812	1221.498779296875	-39.29852676391602	-1573.084106445312	1167.033935546875	-40.94342422485352	-1535.241943359375	1415.833374023438	-48.65350341796875	-1378.743774414062	1340.236206054688	-40.88404846191406	-1576.807739257812	1270.761596679688	22.20294952392578	-1546.943481445312	1375.8896484375	-153.2601776123047	-1459.158813476562	1392.103637695312	-203.6380615234375	-1476.867553710938	1273.593383789062	-272.501220703125	-1449.310180664062	1078.53662109375	-296.76171875	-1497.497924804688	1054.304077148438	-232.1615447998047	-1349.757080078125	864.83642578125	-267.741455078125	-1408.942260742188	849.6981201171875	-319.0814208984375	-1430.609619140625	974.4993286132812	-307.0435180664062	-1333.777954101562	684.6834716796875	-263.2477111816406	-1389.36181640625	764.9515380859375	-312.7674560546875	-1478.919677734375	1397.340454101562	110.9591445922852	-1491.235473632812	1332.551635742188	170.4974060058594	-1478.316162109375	1072.743530273438	215.8452758789062	-1503.536499023438	1059.111694335938	124.6540451049805	-1339.0419921875	865.0584106445312	189.9017791748047	-1379.312377929688	852.8943481445312	251.2573089599609	-1448.303100585938	1008.907836914062	232.6352844238281	-1325.158325195312	694.10205078125	195.453369140625	-1311.645874023438	762.0775756835938	212.3949432373047	-1368.112915039062	763.015625	252.0871124267578	-1516.630493164062	1596.647583007812	37.02158355712891	-1359.255126953125	1620.337646484375	-83.79998016357422	-1384.001098632812	1617.008666992188	36.26218414306641	-1500.592895507812	1598.266235351562	-124.8239059448242	-1481.107421875	968.7752075195312	138.7912292480469	-1349.98876953125	977.0928344726562	79.46798706054688	-1378.56103515625	970.3424072265625	-179.1147613525391	-1427.98828125	483.7185668945312	-214.2191009521484	-1441.057739257812	625.7386474609375	-223.2016754150391	-1507.388305664062	42.67416000366211	-185.8573150634766	-1469.827026367188	249.7588500976562	-212.0176391601562	-1298.05712890625	49.05444717407227	-112.9420471191406	-1379.081176757812	44.98458480834961	-84.81712341308594	-1378.447143554688	43.17074203491211	-190.3865509033203	-1548.002197265625	36.16509628295898	-129.5480651855469	-1431.489624023438	479.925048828125	121.503059387207	-1400.84814453125	742.32861328125	139.3323059082031	-1494.895874023438	58.75628662109375	105.1741180419922	-1423.06884765625	351.8574829101562	109.7976226806641	-1316.59912109375	44.33855438232422	46.62445068359375	-1387.848876953125	43.69597244262695	14.21104335784912	-1408.935791015625	54.24848556518555	111.9207992553711	-1567.65087890625	41.267822265625	50.86678695678711	-1328.778076171875	769.6239013671875	-291.1686096191406	-1488.910522460938	976.5032958984375	-225.6844787597656	nan	nan	nan	
516	5.15	-1566.234130859375	990.897216796875	25.28985786437988	-1572.421630859375	982.959716796875	-106.5804595947266	-1568.889038085938	1064.039428710938	-38.44289398193359	-1326.15234375	1221.54052734375	-39.60165405273438	-1573.425170898438	1166.969116210938	-41.24671936035156	-1535.664916992188	1415.784301757812	-48.9940071105957	-1379.030395507812	1340.287353515625	-41.15031051635742	-1577.199829101562	1270.691162109375	21.9058952331543	-1547.350708007812	1375.801147460938	-153.5928192138672	-1459.541137695312	1392.033935546875	-203.9817810058594	-1477.253662109375	1273.481567382812	-272.7727355957031	-1449.775024414062	1078.399536132812	-296.8970031738281	-1497.954223632812	1054.219360351562	-232.2517852783203	-1350.718994140625	864.4735107421875	-267.7050170898438	-1409.73193359375	849.4359741210938	-318.9916076660156	-1431.19482421875	974.3056640625	-307.0926513671875	-1334.87744140625	684.3016357421875	-262.3750610351562	-1390.263549804688	764.6348266601562	-312.4925842285156	-1479.316162109375	1397.324462890625	110.6476516723633	-1491.602416992188	1332.5615234375	170.2115325927734	-1478.548706054688	1072.765014648438	215.526123046875	-1503.772705078125	1059.099365234375	124.3322219848633	-1340.082763671875	864.510009765625	189.9142456054688	-1380.473999023438	852.6015625	251.2304992675781	-1448.70263671875	1008.882385253906	232.4171752929688	-1326.273071289062	693.5952758789062	195.6280517578125	-1314.315307617188	761.2194213867188	212.364013671875	-1369.6875	762.6365966796875	252.1493835449219	-1517.112915039062	1596.782958984375	36.53665161132812	-1359.408081054688	1620.191650390625	-84.05887603759766	-1384.379150390625	1616.98974609375	35.94789123535156	-1500.658569335938	1598.281127929688	-125.3424987792969	-1481.411376953125	968.8399047851562	138.5596160888672	-1350.140991210938	977.1298217773438	79.30529022216797	-1378.862915039062	970.3013305664062	-179.3446960449219	-1428.064575195312	483.7069091796875	-214.2970428466797	-1441.202514648438	625.7562866210938	-223.3261260986328	-1507.381713867188	42.67424392700195	-185.8421936035156	-1469.84521484375	249.7393951416016	-212.0333557128906	-1298.078369140625	49.03056716918945	-112.9496307373047	-1379.130493164062	44.9012451171875	-84.76563262939453	-1378.437377929688	43.17411422729492	-190.3823547363281	-1547.9931640625	36.16153335571289	-129.5363616943359	-1431.58935546875	479.9333190917969	121.3919372558594	-1401.072875976562	742.3916015625	139.2569580078125	-1494.90234375	58.76921463012695	105.154182434082	-1423.150024414062	351.8578186035156	109.752067565918	-1316.576171875	44.28152465820312	46.63073348999023	-1387.814819335938	43.67563247680664	14.21914482116699	-1408.938354492188	54.22009658813477	111.937141418457	-1567.651000976562	41.27761840820312	50.84646606445312	-1329.667114257812	769.2166137695312	-290.8675842285156	-1489.067260742188	976.4544677734375	-225.8470764160156	nan	nan	nan	
